<mxfile host="app.diagrams.net" modified="2020-11-25T23:26:28.613Z" agent="5.0 (Windows NT 10.0; Win64; x64) AppleWebKit/537.36 (KHTML, like Gecko) Chrome/85.0.4183.121 Safari/537.36 OPR/71.0.3770.323" etag="NDcUYLSQOHbYAhmO6WGG" version="13.10.3" type="github">
  <diagram id="C5RBs43oDa-KdzZeNtuy" name="Page-1">
    <mxGraphModel dx="1779" dy="534" grid="1" gridSize="10" guides="1" tooltips="1" connect="1" arrows="1" fold="1" page="1" pageScale="1" pageWidth="827" pageHeight="1169" math="0" shadow="0">
      <root>
        <mxCell id="WIyWlLk6GJQsqaUBKTNV-0" />
        <mxCell id="WIyWlLk6GJQsqaUBKTNV-1" parent="WIyWlLk6GJQsqaUBKTNV-0" />
        <mxCell id="m9NQCiu5pAI3P7AxCpvC-1" value="" style="edgeStyle=orthogonalEdgeStyle;rounded=0;orthogonalLoop=1;jettySize=auto;html=1;" edge="1" parent="WIyWlLk6GJQsqaUBKTNV-1" source="WIyWlLk6GJQsqaUBKTNV-3" target="m9NQCiu5pAI3P7AxCpvC-0">
          <mxGeometry relative="1" as="geometry" />
        </mxCell>
        <mxCell id="m9NQCiu5pAI3P7AxCpvC-6" style="edgeStyle=orthogonalEdgeStyle;rounded=0;orthogonalLoop=1;jettySize=auto;html=1;exitX=0.5;exitY=1;exitDx=0;exitDy=0;entryX=0;entryY=0.5;entryDx=0;entryDy=0;" edge="1" parent="WIyWlLk6GJQsqaUBKTNV-1" source="WIyWlLk6GJQsqaUBKTNV-3" target="m9NQCiu5pAI3P7AxCpvC-3">
          <mxGeometry relative="1" as="geometry" />
        </mxCell>
        <mxCell id="WIyWlLk6GJQsqaUBKTNV-3" value="The user enters the application&amp;nbsp;" style="rounded=1;whiteSpace=wrap;html=1;fontSize=12;glass=0;strokeWidth=1;shadow=0;" parent="WIyWlLk6GJQsqaUBKTNV-1" vertex="1">
          <mxGeometry x="160" y="80" width="120" height="40" as="geometry" />
        </mxCell>
        <mxCell id="m9NQCiu5pAI3P7AxCpvC-5" style="edgeStyle=orthogonalEdgeStyle;rounded=0;orthogonalLoop=1;jettySize=auto;html=1;exitX=0.5;exitY=1;exitDx=0;exitDy=0;entryX=1;entryY=0.5;entryDx=0;entryDy=0;" edge="1" parent="WIyWlLk6GJQsqaUBKTNV-1" source="m9NQCiu5pAI3P7AxCpvC-0" target="m9NQCiu5pAI3P7AxCpvC-3">
          <mxGeometry relative="1" as="geometry" />
        </mxCell>
        <mxCell id="m9NQCiu5pAI3P7AxCpvC-0" value="User Registration&amp;nbsp;" style="whiteSpace=wrap;html=1;rounded=1;shadow=0;strokeWidth=1;glass=0;" vertex="1" parent="WIyWlLk6GJQsqaUBKTNV-1">
          <mxGeometry x="359" y="80" width="110" height="40" as="geometry" />
        </mxCell>
        <mxCell id="m9NQCiu5pAI3P7AxCpvC-8" value="" style="edgeStyle=orthogonalEdgeStyle;rounded=0;orthogonalLoop=1;jettySize=auto;html=1;" edge="1" parent="WIyWlLk6GJQsqaUBKTNV-1" source="m9NQCiu5pAI3P7AxCpvC-3" target="m9NQCiu5pAI3P7AxCpvC-7">
          <mxGeometry relative="1" as="geometry" />
        </mxCell>
        <mxCell id="m9NQCiu5pAI3P7AxCpvC-3" value="Authorization" style="whiteSpace=wrap;html=1;rounded=1;shadow=0;strokeWidth=1;glass=0;" vertex="1" parent="WIyWlLk6GJQsqaUBKTNV-1">
          <mxGeometry x="250" y="160" width="120" height="60" as="geometry" />
        </mxCell>
        <mxCell id="m9NQCiu5pAI3P7AxCpvC-10" value="" style="edgeStyle=orthogonalEdgeStyle;rounded=0;orthogonalLoop=1;jettySize=auto;html=1;" edge="1" parent="WIyWlLk6GJQsqaUBKTNV-1" source="m9NQCiu5pAI3P7AxCpvC-7" target="m9NQCiu5pAI3P7AxCpvC-9">
          <mxGeometry relative="1" as="geometry" />
        </mxCell>
        <mxCell id="m9NQCiu5pAI3P7AxCpvC-12" value="" style="edgeStyle=orthogonalEdgeStyle;rounded=0;orthogonalLoop=1;jettySize=auto;html=1;" edge="1" parent="WIyWlLk6GJQsqaUBKTNV-1" source="m9NQCiu5pAI3P7AxCpvC-7" target="m9NQCiu5pAI3P7AxCpvC-11">
          <mxGeometry relative="1" as="geometry" />
        </mxCell>
        <mxCell id="m9NQCiu5pAI3P7AxCpvC-18" value="" style="edgeStyle=orthogonalEdgeStyle;rounded=0;orthogonalLoop=1;jettySize=auto;html=1;" edge="1" parent="WIyWlLk6GJQsqaUBKTNV-1" source="m9NQCiu5pAI3P7AxCpvC-7" target="m9NQCiu5pAI3P7AxCpvC-17">
          <mxGeometry relative="1" as="geometry" />
        </mxCell>
        <mxCell id="m9NQCiu5pAI3P7AxCpvC-7" value="Menu selection" style="rhombus;whiteSpace=wrap;html=1;rounded=1;shadow=0;strokeWidth=1;glass=0;" vertex="1" parent="WIyWlLk6GJQsqaUBKTNV-1">
          <mxGeometry x="270" y="290" width="80" height="80" as="geometry" />
        </mxCell>
        <mxCell id="m9NQCiu5pAI3P7AxCpvC-9" value="&#xa;&#xa;&lt;a id=&quot;dictEntry10001776619&quot; class=&quot;dictLink featured&quot; style=&quot;margin: 0px; padding: 0px; box-sizing: border-box; color: rgb(38, 81, 128); line-height: 24px; font-family: &amp;quot;open sans&amp;quot;, sans-serif; font-size: 14px; font-style: normal; font-weight: 400; letter-spacing: normal; text-align: left; text-indent: 0px; text-transform: none; word-spacing: 0px; background-color: rgb(255, 255, 255);&quot;&gt;exit&lt;/a&gt;&#xa;&#xa;" style="whiteSpace=wrap;html=1;rounded=1;shadow=0;strokeWidth=1;glass=0;" vertex="1" parent="WIyWlLk6GJQsqaUBKTNV-1">
          <mxGeometry x="410" y="300" width="120" height="60" as="geometry" />
        </mxCell>
        <mxCell id="m9NQCiu5pAI3P7AxCpvC-14" value="" style="edgeStyle=orthogonalEdgeStyle;rounded=0;orthogonalLoop=1;jettySize=auto;html=1;" edge="1" parent="WIyWlLk6GJQsqaUBKTNV-1" source="m9NQCiu5pAI3P7AxCpvC-11" target="m9NQCiu5pAI3P7AxCpvC-13">
          <mxGeometry relative="1" as="geometry" />
        </mxCell>
        <mxCell id="m9NQCiu5pAI3P7AxCpvC-16" value="" style="edgeStyle=orthogonalEdgeStyle;rounded=0;orthogonalLoop=1;jettySize=auto;html=1;" edge="1" parent="WIyWlLk6GJQsqaUBKTNV-1" source="m9NQCiu5pAI3P7AxCpvC-11" target="m9NQCiu5pAI3P7AxCpvC-15">
          <mxGeometry relative="1" as="geometry" />
        </mxCell>
        <mxCell id="m9NQCiu5pAI3P7AxCpvC-11" value="Previously priced apartments" style="rhombus;whiteSpace=wrap;html=1;rounded=1;shadow=0;strokeWidth=1;glass=0;" vertex="1" parent="WIyWlLk6GJQsqaUBKTNV-1">
          <mxGeometry x="40" y="295" width="150" height="70" as="geometry" />
        </mxCell>
        <mxCell id="m9NQCiu5pAI3P7AxCpvC-13" value="Positively evaluated apartments" style="whiteSpace=wrap;html=1;rounded=1;shadow=0;strokeWidth=1;glass=0;" vertex="1" parent="WIyWlLk6GJQsqaUBKTNV-1">
          <mxGeometry x="55" y="410" width="120" height="60" as="geometry" />
        </mxCell>
        <mxCell id="m9NQCiu5pAI3P7AxCpvC-15" value="&lt;span style=&quot;color: rgb(0 , 0 , 0) ; font-family: &amp;#34;helvetica&amp;#34; ; font-size: 12px ; font-style: normal ; font-weight: 400 ; letter-spacing: normal ; text-align: center ; text-indent: 0px ; text-transform: none ; word-spacing: 0px ; background-color: rgb(248 , 249 , 250) ; display: inline ; float: none&quot;&gt;Negatively assessed&amp;nbsp;&lt;/span&gt;&lt;br&gt;apartments" style="whiteSpace=wrap;html=1;rounded=1;shadow=0;strokeWidth=1;glass=0;" vertex="1" parent="WIyWlLk6GJQsqaUBKTNV-1">
          <mxGeometry x="-90" y="410" width="120" height="60" as="geometry" />
        </mxCell>
        <mxCell id="m9NQCiu5pAI3P7AxCpvC-21" value="" style="edgeStyle=orthogonalEdgeStyle;rounded=0;orthogonalLoop=1;jettySize=auto;html=1;" edge="1" parent="WIyWlLk6GJQsqaUBKTNV-1" source="m9NQCiu5pAI3P7AxCpvC-17" target="m9NQCiu5pAI3P7AxCpvC-20">
          <mxGeometry relative="1" as="geometry" />
        </mxCell>
        <mxCell id="m9NQCiu5pAI3P7AxCpvC-17" value="Filter apartments" style="whiteSpace=wrap;html=1;rounded=1;shadow=0;strokeWidth=1;glass=0;" vertex="1" parent="WIyWlLk6GJQsqaUBKTNV-1">
          <mxGeometry x="250" y="470" width="120" height="60" as="geometry" />
        </mxCell>
        <mxCell id="m9NQCiu5pAI3P7AxCpvC-23" value="" style="edgeStyle=orthogonalEdgeStyle;rounded=0;orthogonalLoop=1;jettySize=auto;html=1;" edge="1" parent="WIyWlLk6GJQsqaUBKTNV-1" source="m9NQCiu5pAI3P7AxCpvC-20" target="m9NQCiu5pAI3P7AxCpvC-22">
          <mxGeometry relative="1" as="geometry" />
        </mxCell>
        <mxCell id="m9NQCiu5pAI3P7AxCpvC-25" value="" style="edgeStyle=orthogonalEdgeStyle;rounded=0;orthogonalLoop=1;jettySize=auto;html=1;" edge="1" parent="WIyWlLk6GJQsqaUBKTNV-1" source="m9NQCiu5pAI3P7AxCpvC-20" target="m9NQCiu5pAI3P7AxCpvC-24">
          <mxGeometry relative="1" as="geometry" />
        </mxCell>
        <mxCell id="m9NQCiu5pAI3P7AxCpvC-32" style="edgeStyle=orthogonalEdgeStyle;rounded=0;orthogonalLoop=1;jettySize=auto;html=1;exitX=0.5;exitY=1;exitDx=0;exitDy=0;" edge="1" parent="WIyWlLk6GJQsqaUBKTNV-1" source="m9NQCiu5pAI3P7AxCpvC-20">
          <mxGeometry relative="1" as="geometry">
            <mxPoint x="310" y="260" as="targetPoint" />
            <Array as="points">
              <mxPoint x="310" y="640" />
              <mxPoint x="590" y="640" />
              <mxPoint x="590" y="260" />
            </Array>
          </mxGeometry>
        </mxCell>
        <mxCell id="m9NQCiu5pAI3P7AxCpvC-20" value="Search for an apartment" style="whiteSpace=wrap;html=1;rounded=1;shadow=0;strokeWidth=1;glass=0;" vertex="1" parent="WIyWlLk6GJQsqaUBKTNV-1">
          <mxGeometry x="250" y="550" width="120" height="60" as="geometry" />
        </mxCell>
        <mxCell id="m9NQCiu5pAI3P7AxCpvC-30" style="edgeStyle=orthogonalEdgeStyle;rounded=0;orthogonalLoop=1;jettySize=auto;html=1;entryX=0;entryY=0.5;entryDx=0;entryDy=0;" edge="1" parent="WIyWlLk6GJQsqaUBKTNV-1" source="m9NQCiu5pAI3P7AxCpvC-22" target="m9NQCiu5pAI3P7AxCpvC-17">
          <mxGeometry relative="1" as="geometry">
            <mxPoint x="110" y="500" as="targetPoint" />
            <Array as="points">
              <mxPoint x="110" y="500" />
            </Array>
          </mxGeometry>
        </mxCell>
        <mxCell id="m9NQCiu5pAI3P7AxCpvC-22" value="Positive assessment" style="whiteSpace=wrap;html=1;rounded=1;shadow=0;strokeWidth=1;glass=0;" vertex="1" parent="WIyWlLk6GJQsqaUBKTNV-1">
          <mxGeometry x="50" y="550" width="120" height="60" as="geometry" />
        </mxCell>
        <mxCell id="m9NQCiu5pAI3P7AxCpvC-29" style="edgeStyle=orthogonalEdgeStyle;rounded=0;orthogonalLoop=1;jettySize=auto;html=1;exitX=0.5;exitY=0;exitDx=0;exitDy=0;entryX=1;entryY=0.5;entryDx=0;entryDy=0;" edge="1" parent="WIyWlLk6GJQsqaUBKTNV-1" source="m9NQCiu5pAI3P7AxCpvC-24" target="m9NQCiu5pAI3P7AxCpvC-17">
          <mxGeometry relative="1" as="geometry" />
        </mxCell>
        <mxCell id="m9NQCiu5pAI3P7AxCpvC-24" value="&#xa;&#xa;&lt;span style=&quot;color: rgb(0, 0, 0); font-family: helvetica; font-size: 12px; font-style: normal; font-weight: 400; letter-spacing: normal; text-align: center; text-indent: 0px; text-transform: none; word-spacing: 0px; background-color: rgb(248, 249, 250); display: inline; float: none;&quot;&gt;Negatively assessed&amp;nbsp;&lt;/span&gt;&#xa;&#xa;" style="whiteSpace=wrap;html=1;rounded=1;shadow=0;strokeWidth=1;glass=0;" vertex="1" parent="WIyWlLk6GJQsqaUBKTNV-1">
          <mxGeometry x="450" y="550" width="120" height="60" as="geometry" />
        </mxCell>
      </root>
    </mxGraphModel>
  </diagram>
</mxfile>
